<svg width="119" height="35" viewBox="0 0 119 35" fill="none" xmlns="http://www.w3.org/2000/svg"><path d="M47.952 28.28q-2.016 0-3.64-.896a7 7 0 0 1-2.548-2.52q-.924-1.596-.924-3.584t.924-3.556a6.87 6.87 0 0 1 2.492-2.52q1.596-.924 3.528-.924 1.876 0 3.304.868a6.05 6.05 0 0 1 2.268 2.38q.84 1.512.84 3.444 0 .336-.056.7a7 7 0 0 1-.112.756H42.996v-2.52h9.436l-1.148 1.008q-.056-1.232-.476-2.072a3 3 0 0 0-1.204-1.288q-.757-.448-1.876-.448-1.176 0-2.044.504a3.43 3.43 0 0 0-1.344 1.428q-.476.896-.476 2.156t.504 2.212 1.428 1.484q.924.504 2.128.504 1.035 0 1.904-.364a4 4 0 0 0 1.512-1.064l1.96 1.988a6.3 6.3 0 0 1-2.38 1.736 7.6 7.6 0 0 1-2.968.588m13.109 0a8.2 8.2 0 0 1-2.156-.28 8 8 0 0 1-1.904-.84 6.5 6.5 0 0 1-1.512-1.344l1.96-1.96q.7.812 1.596 1.232.924.392 2.072.392 1.035 0 1.568-.308.532-.308.532-.896 0-.616-.504-.952t-1.316-.56a48 48 0 0 0-1.68-.504 9.3 9.3 0 0 1-1.68-.672 3.8 3.8 0 0 1-1.288-1.204q-.504-.756-.504-1.96 0-1.288.588-2.212.615-.924 1.708-1.428 1.12-.504 2.66-.504 1.625 0 2.856.588a5.17 5.17 0 0 1 2.1 1.708l-1.96 1.96a3.9 3.9 0 0 0-1.344-1.092q-.756-.364-1.736-.364-.924 0-1.428.28t-.504.812q0 .56.504.868t1.288.532q.811.224 1.68.504.895.252 1.68.728.812.449 1.316 1.232.504.756.504 1.988 0 1.96-1.372 3.108t-3.724 1.148m9.68-.28V8.96h3.08V28zm-3.22-10.64v-2.8h9.52v2.8zm17.002 10.92q-1.82 0-3.303-.924a6.8 6.8 0 0 1-2.325-2.492q-.84-1.597-.84-3.556 0-1.987.84-3.556.87-1.596 2.325-2.52 1.484-.952 3.303-.952 1.54 0 2.717.672a4.9 4.9 0 0 1 1.904 1.792q.7 1.148.7 2.604v3.864q0 1.456-.7 2.604a4.9 4.9 0 0 1-1.877 1.82q-1.204.644-2.743.644m.505-2.912q1.707 0 2.743-1.148 1.064-1.148 1.064-2.94 0-1.204-.475-2.128a3.43 3.43 0 0 0-1.344-1.428q-.84-.532-1.989-.532-1.12 0-1.987.532a3.7 3.7 0 0 0-1.345 1.428q-.475.924-.475 2.128t.475 2.128a3.9 3.9 0 0 0 1.345 1.456q.867.504 1.987.504M88.639 28v-3.612l.532-3.276-.532-3.248V14.56h3.08V28zm8.543 0V8.96h3.08V28zm-3.22-10.64v-2.8h9.52v2.8zm17.619 10.92q-2.016 0-3.64-.896a7 7 0 0 1-2.548-2.52q-.924-1.596-.924-3.584t.924-3.556a6.87 6.87 0 0 1 2.492-2.52q1.596-.924 3.528-.924 1.876 0 3.304.868a6.05 6.05 0 0 1 2.268 2.38q.84 1.512.84 3.444 0 .336-.056.7a7 7 0 0 1-.112.756h-11.032v-2.52h9.436l-1.148 1.008q-.056-1.232-.476-2.072t-1.204-1.288q-.756-.448-1.876-.448-1.176 0-2.044.504a3.4 3.4 0 0 0-1.344 1.428q-.476.896-.476 2.156t.504 2.212 1.428 1.484q.924.504 2.128.504 1.036 0 1.904-.364a4 4 0 0 0 1.512-1.064l1.96 1.988a6.3 6.3 0 0 1-2.38 1.736 7.6 7.6 0 0 1-2.968.588M10.689 5C4.786 5 0 9.786 0 15.689c0 5.902 4.786 10.688 10.689 10.688q.6-.002 1.113-.062V5.072A8 8 0 0 0 10.688 5" fill="#fff"/><path d="M20.478 13.93a8.805 8.805 0 0 1-8.805-8.804V5.11h9.749v8.755q-.434.063-.945.065" fill="#fff"/><path d="M22.312 34.836C28.214 34.836 33 30.05 33 24.148c0-5.904-4.785-10.689-10.689-10.689a10 10 0 0 0-1.113.063v21.242a8 8 0 0 0 1.113.072" fill="#fff"/><path d="M12.522 25.93a8.805 8.805 0 0 1 8.805 8.8h-9.75v-8.736q.434-.063.945-.064" fill="#fff"/></svg>